# xmcd
#
# Track frame offsets: 
#        150
#        13070
#        25415
#        39933
#        55540
#        71305
#        87925
#        100458
#        113118
#        124788
#        137503
#        148553
#        161113
#
# Disc length: 2229 seconds
#
# Revision: 2
# Processed by: cddbd v1.5.1PL2 Copyright (c) Steve Scherf et al.
# Submitted via: ExactAudioCopy v0.95b3
#
DISCID=a808b30d
DTITLE=William Bell - The Soul Of A Bell
DYEAR=1967
DGENRE=Soul
TTITLE0=Everybody Loves A Winner
TTITLE1=You Don't Miss Your Water
TTITLE2=Do Right Woman, Do Right Man
TTITLE3=I've Been Loving You Too Long (To Stop Now)
TTITLE4=Nothing Takes The Place Of You
TTITLE5=Then You Can Tell Me Goodbye
TTITLE6=Eloise (Hang On In There)
TTITLE7=Any Other Way
TTITLE8=It's Happening All Over
TTITLE9=Never Like This Before
TTITLE10=You're Such A Sweet Thing
TTITLE11=You Don't Miss Your Water (alt version)
TTITLE12=Any Other Way (alt version)
EXTD=
EXTT0=
EXTT1=
EXTT2=
EXTT3=
EXTT4=
EXTT5=
EXTT6=
EXTT7=
EXTT8=
EXTT9=
EXTT10=
EXTT11=
EXTT12=
PLAYORDER=
